<?xml version="1.0" encoding="utf-8"?><svg xmlns="http://www.w3.org/2000/svg" xmlns:xlink="http://www.w3.org/1999/xlink"><symbol viewBox="0 0 128 128" id="mail" xmlns="http://www.w3.org/2000/svg"><g id="aExpand"><path d="m5.53 34.21a5.53 5.53 0 0 0 -5.53 5.52v67.78a5.53 5.53 0 0 0 5.53 5.49h117a5.52 5.52 0 0 0 5.52-5.52v-67.75a5.52 5.52 0 0 0 -5.52-5.52zm117 4h.16l-58.69 42.01-58.64-42h117.12zm-74.53 35.46-43.84 33.39c-.06 0-.1.1-.16.15v-65zm3.4 2.44 11.46 8.2a2 2 0 0 0 1.16.37 2 2 0 0 0 1.17-.37l11.45-8.2 43.19 32.89h-111.66zm72.6 31.1a1.14 1.14 0 0 0 -.16-.15l-43.84-33.39 44-31.5z"/></g></symbol><symbol id="map" viewBox="0 0 512 512" style="enable-background:new 0 0 512 512" xml:space="preserve" xmlns="http://www.w3.org/2000/svg"><g><g><g><path d="M256,298.667c58.813,0,106.667-47.854,106.667-106.667S314.813,85.333,256,85.333S149.333,133.188,149.333,192 S197.188,298.667,256,298.667z M256,106.667c47.063,0,85.333,38.281,85.333,85.333S303.063,277.333,256,277.333 S170.667,239.052,170.667,192S208.938,106.667,256,106.667z"/><path d="M489.813,497.135l-64-149.333c-1.688-3.927-5.542-6.469-9.813-6.469h-37.878l13.086-13.042 C427.833,291.938,448,243.542,448,192C448,86.135,361.875,0,256,0S64,86.135,64,192c0,51.542,20.167,99.938,56.792,136.271 l13.104,13.063H96c-4.271,0-8.125,2.542-9.813,6.469l-64,149.333c-1.396,3.292-1.063,7.073,0.917,10.073 C25.063,510.198,28.417,512,32,512h448c3.583,0,6.938-1.802,8.896-4.792C490.875,504.208,491.208,500.427,489.813,497.135z M85.333,192c0-94.104,76.563-170.667,170.667-170.667S426.667,97.896,426.667,192c0,45.813-17.938,88.833-50.5,121.167 L256,432.938L135.833,313.146C103.271,280.833,85.333,237.813,85.333,192z M48.167,490.667l54.875-128h52.255l93.182,92.885 c2.063,2.073,4.792,3.115,7.521,3.115s5.458-1.042,7.521-3.115l93.197-92.885h52.241l54.875,128H48.167z"/></g></g></g></symbol><symbol id="phone" viewBox="0 0 287.32 287.32" style="enable-background:new 0 0 287.32 287.32" xml:space="preserve" xmlns="http://www.w3.org/2000/svg"><path d="M267.749,191.076c-14.595-11.729-27.983-17.431-40.93-17.431c-18.729,0-32.214,11.914-44.423,24.119 c-1.404,1.405-3.104,2.06-5.349,2.06c-10.288,0.001-28.387-12.883-53.794-38.293c-29.89-29.892-41.191-48.904-33.592-56.506 c20.6-20.593,27.031-41.237-4.509-80.462C73.861,10.51,62.814,3.68,51.38,3.68c-15.42,0-27.142,12.326-37.484,23.202 c-1.788,1.88-3.477,3.656-5.133,5.312c-11.689,11.688-11.683,37.182,0.017,68.2c12.837,34.033,38.183,71.055,71.37,104.247 c25.665,25.663,53.59,46.403,80.758,60.328c23.719,12.158,46.726,18.672,64.783,18.672c0.002,0,0.004,0,0.007,0 c11.3,0,20.479-2.465,26.541-7.478c12.314-10.181,35.234-29.039,35.081-51.439C287.236,212.71,280.653,201.451,267.749,191.076z"/></symbol></svg>